<svg width="22" height="22" viewBox="0 0 22 22" fill="none" xmlns="http://www.w3.org/2000/svg">
<path fill-rule="evenodd" clip-rule="evenodd" d="M0.293045 20.0919C-0.0974579 20.4824 -0.0974579 21.1156 0.293045 21.5061C0.683609 21.8966 1.31673 21.8966 1.70729 21.5061L10.8996 12.3138L20.0919 21.5061C20.4824 21.8966 21.1156 21.8966 21.5061 21.5061C21.8966 21.1156 21.8966 20.4824 21.5061 20.0919L12.3138 10.8996L21.5062 1.7071C21.8968 1.31658 21.8968 0.68342 21.5062 0.292887C21.1157 -0.0976315 20.4826 -0.0976315 20.0921 0.292902L10.8996 9.48538L1.70711 0.292902C1.3166 -0.0976162 0.683426 -0.0976162 0.292923 0.292902C-0.097641 0.68342 -0.097641 1.31658 0.292923 1.70712L9.48537 10.8996L0.293045 20.0919Z" fill="white"/>
</svg>
 